<mxfile host="app.diagrams.net" modified="2021-02-25T14:39:59.844Z" agent="5.0 (Windows NT 10.0; Win64; x64) AppleWebKit/537.36 (KHTML, like Gecko) Chrome/88.0.4324.190 Safari/537.36" etag="7rtEfVW396k4eQfQgV-p" version="14.4.3" type="github">
  <diagram id="prtHgNgQTEPvFCAcTncT" name="Page-1">
    <mxGraphModel dx="1416" dy="876" grid="0" gridSize="10" guides="1" tooltips="1" connect="1" arrows="1" fold="1" page="1" pageScale="1" pageWidth="827" pageHeight="1169" math="0" shadow="0">
      <root>
        <mxCell id="0" />
        <mxCell id="1" parent="0" />
        <mxCell id="IhqmPT7-IjPV8I93Hf1b-1" value="收集相关模型尺寸数据" style="rounded=1;whiteSpace=wrap;html=1;fillColor=#ffffff;strokeWidth=2;fontSize=18;" parent="1" vertex="1">
          <mxGeometry x="270" y="30" width="200" height="60" as="geometry" />
        </mxCell>
        <mxCell id="IhqmPT7-IjPV8I93Hf1b-2" value="悬挂件模型" style="whiteSpace=wrap;html=1;rounded=1;fontSize=18;strokeWidth=2;" parent="1" vertex="1">
          <mxGeometry x="310" y="170" width="120" height="60" as="geometry" />
        </mxCell>
        <mxCell id="IhqmPT7-IjPV8I93Hf1b-4" value="拖拉机模型" style="whiteSpace=wrap;html=1;rounded=1;fontSize=18;strokeWidth=2;" parent="1" vertex="1">
          <mxGeometry x="110" y="170" width="120" height="60" as="geometry" />
        </mxCell>
        <mxCell id="IhqmPT7-IjPV8I93Hf1b-8" value="播种机模型" style="whiteSpace=wrap;html=1;rounded=1;fontSize=18;strokeWidth=2;" parent="1" vertex="1">
          <mxGeometry x="510" y="170" width="120" height="60" as="geometry" />
        </mxCell>
        <mxCell id="IhqmPT7-IjPV8I93Hf1b-9" value="装配" style="whiteSpace=wrap;html=1;rounded=1;fontSize=18;strokeWidth=2;" parent="1" vertex="1">
          <mxGeometry x="310" y="310" width="120" height="60" as="geometry" />
        </mxCell>
        <mxCell id="IhqmPT7-IjPV8I93Hf1b-11" value="" style="endArrow=none;html=1;fontSize=18;" parent="1" edge="1">
          <mxGeometry width="50" height="50" relative="1" as="geometry">
            <mxPoint x="169.5" y="170" as="sourcePoint" />
            <mxPoint x="169.5" y="120" as="targetPoint" />
          </mxGeometry>
        </mxCell>
        <mxCell id="IhqmPT7-IjPV8I93Hf1b-13" value="" style="endArrow=none;html=1;fontSize=18;" parent="1" edge="1">
          <mxGeometry width="50" height="50" relative="1" as="geometry">
            <mxPoint x="569.5" y="170" as="sourcePoint" />
            <mxPoint x="569.5" y="120" as="targetPoint" />
          </mxGeometry>
        </mxCell>
        <mxCell id="IhqmPT7-IjPV8I93Hf1b-17" value="" style="endArrow=none;html=1;fontSize=18;" parent="1" edge="1">
          <mxGeometry width="50" height="50" relative="1" as="geometry">
            <mxPoint x="170" y="120" as="sourcePoint" />
            <mxPoint x="570" y="120" as="targetPoint" />
          </mxGeometry>
        </mxCell>
        <mxCell id="IhqmPT7-IjPV8I93Hf1b-18" value="" style="endArrow=none;html=1;fontSize=18;" parent="1" edge="1">
          <mxGeometry width="50" height="50" relative="1" as="geometry">
            <mxPoint x="169.5" y="280" as="sourcePoint" />
            <mxPoint x="169.5" y="230" as="targetPoint" />
          </mxGeometry>
        </mxCell>
        <mxCell id="IhqmPT7-IjPV8I93Hf1b-19" value="" style="endArrow=none;html=1;fontSize=18;" parent="1" edge="1">
          <mxGeometry width="50" height="50" relative="1" as="geometry">
            <mxPoint x="569.5" y="280" as="sourcePoint" />
            <mxPoint x="569.5" y="230" as="targetPoint" />
          </mxGeometry>
        </mxCell>
        <mxCell id="IhqmPT7-IjPV8I93Hf1b-20" value="" style="endArrow=none;html=1;fontSize=18;" parent="1" edge="1">
          <mxGeometry width="50" height="50" relative="1" as="geometry">
            <mxPoint x="170" y="280" as="sourcePoint" />
            <mxPoint x="570" y="280" as="targetPoint" />
          </mxGeometry>
        </mxCell>
        <mxCell id="IhqmPT7-IjPV8I93Hf1b-21" value="" style="endArrow=none;html=1;fontSize=18;" parent="1" edge="1">
          <mxGeometry width="50" height="50" relative="1" as="geometry">
            <mxPoint x="369.5" y="310" as="sourcePoint" />
            <mxPoint x="369.5" y="230" as="targetPoint" />
          </mxGeometry>
        </mxCell>
        <mxCell id="IhqmPT7-IjPV8I93Hf1b-22" value="" style="endArrow=none;html=1;fontSize=18;" parent="1" edge="1">
          <mxGeometry width="50" height="50" relative="1" as="geometry">
            <mxPoint x="369.5" y="170" as="sourcePoint" />
            <mxPoint x="369.5" y="90" as="targetPoint" />
          </mxGeometry>
        </mxCell>
        <mxCell id="IhqmPT7-IjPV8I93Hf1b-23" value="" style="endArrow=none;html=1;fontSize=18;" parent="1" edge="1">
          <mxGeometry width="50" height="50" relative="1" as="geometry">
            <mxPoint x="370" y="430" as="sourcePoint" />
            <mxPoint x="369.5" y="370" as="targetPoint" />
          </mxGeometry>
        </mxCell>
        <mxCell id="IhqmPT7-IjPV8I93Hf1b-24" value="作业机组三维模型" style="whiteSpace=wrap;html=1;rounded=1;fontSize=18;strokeWidth=2;" parent="1" vertex="1">
          <mxGeometry x="290" y="430" width="160" height="60" as="geometry" />
        </mxCell>
      </root>
    </mxGraphModel>
  </diagram>
</mxfile>
